# xmcd
# 
# Track frame offsets:
#     150
#     15200
#     34084
#     50806
#     69366
#     87575
#     102526
#     117383
#     138425
#     140360
#     160232
#     178599
# 
# Disc length: 2790
# 
# Revision: 0
# Processed by: cddbd v1.5.2PL0 Copyright (c) Steve Scherf et al.
# Submitted via: fre:ac v1.0.31
# 
DISCID=a40ae40c
DTITLE=Anssi Kela - ƒ‰riviivoja
DYEAR=2018
DGENRE=Pop/Rock
TTITLE0=Bumerangi
TTITLE1=Ilves
TTITLE2=SOS
TTITLE3=S‰ et tiennyt feat. Yona
TTITLE4=Rakkaus upottaa
TTITLE5=El‰m‰ jatkuu
TTITLE6=Kiitos ei
TTITLE7=Jotain on poissa
TTITLE8=Pelk‰‰n ett‰ j‰‰n yksin
TTITLE9=Kenenk‰‰n ei pit‰isi olla yksin
TTITLE10=Kaiken tarkoitus
TTITLE11=Lento feat. Verneri Pohjola
EXTD=
EXTT0=
EXTT1=
EXTT2=
EXTT3=
EXTT4=
EXTT5=
EXTT6=
EXTT7=
EXTT8=
EXTT9=
EXTT10=
EXTT11=
PLAYORDER=
